<svg width="73" height="17" viewBox="0 0 73 17" fill="none" xmlns="http://www.w3.org/2000/svg">
<path d="M14.1055 15.996L0.380431 8.50052C0.265428 8.43863 0.169334 8.34675 0.102351 8.23464C0.0353692 8.12253 0 7.99437 0 7.86377C0 7.73318 0.0353692 7.60502 0.102351 7.49291C0.169334 7.3808 0.265428 7.28892 0.380431 7.22703L14.1094 0.0812001C14.2189 0.0241501 14.3413 -0.00367889 14.4648 0.000390107C14.5883 0.00446011 14.7086 0.04029 14.8141 0.10443C14.9197 0.16856 15.007 0.25884 15.0675 0.36653C15.128 0.47422 15.1597 0.59569 15.1595 0.71922V15.3631C15.159 15.4866 15.1266 15.6079 15.0655 15.7153C15.0045 15.8226 14.9168 15.9124 14.8109 15.9761C14.705 16.0397 14.5845 16.0749 14.461 16.0784C14.3376 16.0819 14.2148 16.0535 14.1055 15.996Z" fill="#FFD648"/>
<path d="M4.48397 7.67384C3.43327 7.6765 2.4211 8.0698 1.64426 8.77725C0.867409 9.4847 0.381401 10.4558 0.28072 11.5016C0.180039 12.5475 0.471882 13.5935 1.09951 14.4361C1.72713 15.2788 2.64569 15.8579 3.67659 16.061C4.70749 16.264 5.77706 16.0765 6.67736 15.5348C7.57766 14.9931 8.24434 14.1359 8.5478 13.13C8.85125 12.124 8.76979 11.0412 8.31925 10.092C7.86871 9.1428 7.08129 8.39504 6.11008 7.99412C5.59435 7.78156 5.04179 7.67272 4.48397 7.67384Z" fill="#00D924"/>
<path fill-rule="evenodd" clip-rule="evenodd" d="M8.5928 12.9853L1.36572 9.0385C2.00762 8.34356 2.86326 7.88297 3.79681 7.72982C4.73035 7.57668 5.68831 7.73977 6.51859 8.19319C7.34887 8.64662 8.00389 9.3644 8.37968 10.2326C8.75547 11.1008 8.83047 12.0696 8.5928 12.9853Z" fill="#00BD01"/>
<path d="M27.0099 4.09091V6.36364H20.4403V4.09091H27.0099ZM21.9318 1.47727H24.9574V11.6477C24.9574 11.9271 25 12.1449 25.0852 12.3011C25.1705 12.4527 25.2888 12.5592 25.4403 12.6207C25.5966 12.6823 25.7765 12.7131 25.9801 12.7131C26.1222 12.7131 26.2642 12.7012 26.4062 12.6776C26.5483 12.6491 26.6572 12.6278 26.733 12.6136L27.2088 14.8651C27.0573 14.9124 26.8442 14.9669 26.5696 15.0284C26.295 15.0947 25.9612 15.1349 25.5682 15.1491C24.839 15.1776 24.1998 15.0805 23.6506 14.858C23.1061 14.6354 22.6823 14.2898 22.3793 13.821C22.0762 13.3523 21.9271 12.7604 21.9318 12.0455V1.47727ZM31.4916 15.206C30.7956 15.206 30.1753 15.0852 29.6308 14.8438C29.0863 14.5975 28.6554 14.2353 28.3382 13.7571C28.0257 13.2741 27.8695 12.6728 27.8695 11.9531C27.8695 11.3471 27.9807 10.8381 28.2033 10.4261C28.4258 10.0142 28.7288 9.68277 29.1124 9.43182C29.4959 9.18087 29.9315 8.99148 30.4192 8.86364C30.9116 8.7358 31.4277 8.64583 31.9675 8.59375C32.6019 8.52746 33.1133 8.46591 33.5016 8.40909C33.8898 8.34754 34.1715 8.25758 34.3467 8.1392C34.5219 8.02083 34.6095 7.84564 34.6095 7.61364V7.57102C34.6095 7.12121 34.4675 6.7732 34.1834 6.52699C33.904 6.28078 33.5063 6.15767 32.9902 6.15767C32.4457 6.15767 32.0125 6.27841 31.6905 6.51989C31.3685 6.75663 31.1554 7.05492 31.0513 7.41477L28.253 7.1875C28.395 6.52462 28.6744 5.9517 29.0911 5.46875C29.5077 4.98106 30.0451 4.60701 30.7033 4.34659C31.3661 4.08144 32.1332 3.94886 33.0044 3.94886C33.6105 3.94886 34.1905 4.01989 34.7445 4.16193C35.3032 4.30398 35.798 4.52415 36.2288 4.82244C36.6644 5.12074 37.0077 5.50426 37.2587 5.97301C37.5096 6.43703 37.6351 6.99337 37.6351 7.64205V15H34.7658V13.4872H34.6805C34.5054 13.8281 34.271 14.1288 33.9774 14.3892C33.6839 14.6449 33.3311 14.8461 32.9192 14.9929C32.5072 15.1349 32.0314 15.206 31.4916 15.206ZM32.3581 13.1179C32.8032 13.1179 33.1962 13.0303 33.5371 12.8551C33.878 12.6752 34.1455 12.4337 34.3396 12.1307C34.5338 11.8277 34.6308 11.4844 34.6308 11.1009V9.94318C34.5361 10.0047 34.4059 10.0616 34.2402 10.1136C34.0792 10.161 33.8969 10.206 33.6933 10.2486C33.4897 10.2865 33.2861 10.322 33.0825 10.3551C32.8789 10.3835 32.6943 10.4096 32.5286 10.4332C32.1734 10.4853 31.8633 10.5682 31.5982 10.6818C31.333 10.7955 31.127 10.9493 30.9803 11.1435C30.8335 11.3329 30.7601 11.5696 30.7601 11.8537C30.7601 12.2656 30.9092 12.5805 31.2075 12.7983C31.5106 13.0114 31.8941 13.1179 32.3581 13.1179ZM41.9108 4.09091L43.9136 7.90483L45.9662 4.09091H49.0699L45.9094 9.54545L49.1551 15H46.0656L43.9136 11.2287L41.7972 15H38.6722L41.9108 9.54545L38.7858 4.09091H41.9108ZM54.8477 15.2131C53.7256 15.2131 52.7597 14.9858 51.95 14.5312C51.1451 14.072 50.5248 13.4233 50.0892 12.5852C49.6536 11.7424 49.4358 10.7457 49.4358 9.59517C49.4358 8.47301 49.6536 7.48816 50.0892 6.64062C50.5248 5.79309 51.138 5.13258 51.9287 4.65909C52.7241 4.18561 53.6569 3.94886 54.727 3.94886C55.4467 3.94886 56.1167 4.06487 56.7369 4.29688C57.3619 4.52415 57.9064 4.86742 58.3705 5.3267C58.8392 5.78598 59.2038 6.36364 59.4642 7.05966C59.7246 7.75095 59.8548 8.56061 59.8548 9.48864V10.3196H50.6432V8.4446H57.0068C57.0068 8.009 56.9121 7.62311 56.7227 7.28693C56.5333 6.95076 56.2706 6.68797 55.9344 6.49858C55.6029 6.30445 55.217 6.20739 54.7767 6.20739C54.3174 6.20739 53.9102 6.31392 53.5551 6.52699C53.2047 6.73532 52.9301 7.01705 52.7313 7.37216C52.5324 7.72254 52.4306 8.11316 52.4259 8.54403V10.3267C52.4259 10.8665 52.5253 11.3329 52.7241 11.7259C52.9277 12.1188 53.2142 12.4219 53.5835 12.6349C53.9528 12.848 54.3908 12.9545 54.8974 12.9545C55.2336 12.9545 55.5414 12.9072 55.8207 12.8125C56.1001 12.7178 56.3392 12.5758 56.5381 12.3864C56.7369 12.197 56.8884 11.965 56.9926 11.6903L59.7909 11.875C59.6489 12.5473 59.3577 13.1345 58.9173 13.6364C58.4817 14.1335 57.9183 14.5218 57.227 14.8011C56.5404 15.0758 55.7473 15.2131 54.8477 15.2131ZM65.2491 15.1776C64.4205 15.1776 63.6701 14.9645 62.9977 14.5384C62.3301 14.1075 61.7998 13.4754 61.4068 12.642C61.0186 11.804 60.8244 10.7765 60.8244 9.55966C60.8244 8.30966 61.0257 7.27036 61.4281 6.44176C61.8306 5.60843 62.3656 4.9858 63.0332 4.57386C63.7056 4.1572 64.4419 3.94886 65.242 3.94886C65.8528 3.94886 66.3618 4.05303 66.769 4.26136C67.181 4.46496 67.5124 4.72064 67.7634 5.02841C68.019 5.33144 68.2132 5.62973 68.3457 5.9233H68.4381V0.454545H71.4565V15H68.4736V13.2528H68.3457C68.2037 13.5559 68.0025 13.8565 67.742 14.1548C67.4864 14.4484 67.1526 14.6922 66.7406 14.8864C66.3334 15.0805 65.8363 15.1776 65.2491 15.1776ZM66.208 12.7699C66.6956 12.7699 67.1076 12.6373 67.4437 12.3722C67.7847 12.1023 68.0451 11.7259 68.225 11.2429C68.4097 10.7599 68.502 10.1941 68.502 9.54545C68.502 8.89678 68.412 8.33333 68.2321 7.85511C68.0522 7.37689 67.7918 7.00758 67.4509 6.74716C67.1099 6.48674 66.6956 6.35653 66.208 6.35653C65.7108 6.35653 65.2918 6.49148 64.9509 6.76136C64.6099 7.03125 64.3519 7.4053 64.1767 7.88352C64.0015 8.36174 63.9139 8.91572 63.9139 9.54545C63.9139 10.1799 64.0015 10.741 64.1767 11.2287C64.3566 11.7116 64.6147 12.0904 64.9509 12.3651C65.2918 12.6349 65.7108 12.7699 66.208 12.7699Z" fill="black"/>
</svg>
