<svg width="16" height="17" viewBox="0 0 16 17" fill="none" xmlns="http://www.w3.org/2000/svg">
<path d="M14.1055 15.996L0.380431 8.50052C0.265428 8.43863 0.169334 8.34675 0.102351 8.23464C0.0353692 8.12253 0 7.99437 0 7.86377C0 7.73318 0.0353692 7.60502 0.102351 7.49291C0.169334 7.3808 0.265428 7.28892 0.380431 7.22703L14.1094 0.0812001C14.2189 0.0241501 14.3413 -0.00367889 14.4648 0.000390107C14.5883 0.00446011 14.7086 0.04029 14.8141 0.10443C14.9197 0.16856 15.007 0.25884 15.0675 0.36653C15.128 0.47422 15.1597 0.59569 15.1595 0.71922V15.3631C15.159 15.4866 15.1266 15.6079 15.0655 15.7153C15.0045 15.8226 14.9168 15.9124 14.8109 15.9761C14.705 16.0397 14.5845 16.0749 14.461 16.0784C14.3376 16.0819 14.2148 16.0535 14.1055 15.996Z" fill="#FFD648"/>
<path d="M4.48397 7.67384C3.43327 7.6765 2.4211 8.0698 1.64426 8.77725C0.867409 9.4847 0.381401 10.4558 0.28072 11.5016C0.180039 12.5475 0.471882 13.5935 1.09951 14.4361C1.72713 15.2788 2.64569 15.8579 3.67659 16.061C4.70749 16.264 5.77706 16.0765 6.67736 15.5348C7.57766 14.9931 8.24434 14.1359 8.5478 13.13C8.85125 12.124 8.76979 11.0412 8.31925 10.092C7.86871 9.1428 7.08129 8.39504 6.11008 7.99412C5.59435 7.78156 5.04179 7.67272 4.48397 7.67384Z" fill="#00D924"/>
<path fill-rule="evenodd" clip-rule="evenodd" d="M8.5928 12.9853L1.36572 9.0385C2.00762 8.34356 2.86326 7.88297 3.79681 7.72982C4.73035 7.57668 5.68831 7.73977 6.51859 8.19319C7.34887 8.64662 8.00389 9.3644 8.37968 10.2326C8.75547 11.1008 8.83047 12.0696 8.5928 12.9853Z" fill="#00BD01"/>
</svg>
